<?xml version="1.0" encoding="UTF-8" standalone="no"?>
<svg
   xmlns:dc="http://purl.org/dc/elements/1.1/"
   xmlns:cc="http://creativecommons.org/ns#"
   xmlns:rdf="http://www.w3.org/1999/02/22-rdf-syntax-ns#"
   xmlns:svg="http://www.w3.org/2000/svg"
   xmlns="http://www.w3.org/2000/svg"
   xmlns:sodipodi="http://sodipodi.sourceforge.net/DTD/sodipodi-0.dtd"
   xmlns:inkscape="http://www.inkscape.org/namespaces/inkscape"
   version="1.1"
   id="svg2"
   xml:space="preserve"
   width="1007.3333"
   height="439.13333"
   viewBox="0 0 1007.3333 439.13333"
   sodipodi:docname="NISRA-full-name-stacked-white.svg"
   inkscape:version="0.92.4 (5da689c313, 2019-01-14)"><metadata
     id="metadata8"><rdf:RDF><cc:Work
         rdf:about=""><dc:format>image/svg+xml</dc:format><dc:type
           rdf:resource="http://purl.org/dc/dcmitype/StillImage" /><dc:title></dc:title></cc:Work></rdf:RDF></metadata><defs
     id="defs6" /><sodipodi:namedview
     pagecolor="#ffffff"
     bordercolor="#666666"
     borderopacity="1"
     objecttolerance="10"
     gridtolerance="10"
     guidetolerance="10"
     inkscape:pageopacity="0"
     inkscape:pageshadow="2"
     inkscape:window-width="1920"
     inkscape:window-height="1017"
     id="namedview4"
     showgrid="false"
     inkscape:zoom="1.7521509"
     inkscape:cx="766.2754"
     inkscape:cy="195.43638"
     inkscape:window-x="1912"
     inkscape:window-y="-8"
     inkscape:window-maximized="1"
     inkscape:current-layer="g12" /><g
     id="g10"
     inkscape:groupmode="layer"
     inkscape:label="ink_ext_XXXXXX"
     transform="matrix(1.3333333,0,0,-1.3333333,0,439.13333)"><g
       id="g12"
       transform="scale(0.1)"><path
         d="m 3733.43,2936.62 c 2.33,-1.21 4.99,-3.69 7.98,-7.42 l 232.4,-302.4 c -0.55,4.86 -0.94,9.57 -1.12,14.14 -0.19,4.57 -0.27,9 -0.27,13.3 v 284.2 h 47.59 v -401.23 h -27.44 c -4.3,0 -7.89,0.74 -10.78,2.22 -2.9,1.51 -5.74,4.03 -8.53,7.58 l -232.13,302.11 c 0.38,-4.67 0.65,-9.24 0.84,-13.71 0.18,-4.49 0.28,-8.59 0.28,-12.32 v -285.88 h -47.6 v 401.23 h 28 c 4.85,0 8.45,-0.61 10.78,-1.82"
         style="fill:#ffffff;fill-opacity:1;fill-rule:nonzero;stroke:none"
         id="path14" /><path
         d="m 4210.97,2572.21 c 28,0 48.9,9.37 62.71,28.14 13.81,18.75 20.73,44.92 20.73,78.54 0,33.77 -6.92,60.09 -20.73,78.96 -13.81,18.85 -34.71,28.26 -62.71,28.26 -14.19,0 -26.51,-2.42 -36.96,-7.26 -10.46,-4.87 -19.18,-11.86 -26.18,-21 -7.01,-9.16 -12.23,-20.41 -15.69,-33.75 -3.45,-13.34 -5.17,-28.42 -5.17,-45.21 0,-16.8 1.72,-31.84 5.17,-45.08 3.46,-13.26 8.68,-24.42 15.69,-33.46 7,-9.06 15.72,-16.01 26.18,-20.88 10.45,-4.84 22.77,-7.26 36.96,-7.26 z m 0,253.1 c 20.71,0 39.42,-3.43 56.13,-10.35 16.71,-6.91 30.9,-16.7 42.57,-29.39 11.66,-12.7 20.62,-28.05 26.88,-46.06 6.25,-18.03 9.38,-38.14 9.38,-60.35 0,-22.4 -3.13,-42.56 -9.38,-60.47 -6.26,-17.93 -15.22,-33.24 -26.88,-45.94 -11.67,-12.69 -25.86,-22.44 -42.57,-29.25 -16.71,-6.8 -35.42,-10.22 -56.13,-10.22 -20.72,0 -39.44,3.42 -56.14,10.22 -16.71,6.81 -30.94,16.56 -42.71,29.25 -11.76,12.7 -20.81,28.01 -27.16,45.94 -6.34,17.91 -9.52,38.07 -9.52,60.47 0,22.21 3.18,42.32 9.52,60.35 6.35,18.01 15.4,33.36 27.16,46.06 11.77,12.69 26,22.48 42.71,29.39 16.7,6.92 35.42,10.35 56.14,10.35"
         style="fill:#ffffff;fill-opacity:1;fill-rule:nonzero;stroke:none"
         id="path16" /><path
         d="m 4393.53,2537.21 v 283.63 h 28.56 c 5.41,0 9.14,-1.04 11.2,-3.09 2.05,-2.05 3.45,-5.58 4.2,-10.62 l 3.36,-44.24 c 9.7,19.77 21.7,35.22 35.98,46.33 14.28,11.11 31.03,16.66 50.26,16.66 7.83,0 14.93,-0.88 21.28,-2.66 6.34,-1.77 12.22,-4.26 17.64,-7.42 l -6.44,-37.25 c -1.31,-4.66 -4.2,-6.99 -8.68,-6.99 -2.62,0 -6.63,0.88 -12.04,2.66 -5.42,1.78 -12.98,2.66 -22.68,2.66 -17.36,0 -31.88,-5.04 -43.54,-15.12 -11.67,-10.08 -21.42,-24.73 -29.26,-43.97 v -180.58 h -49.84"
         style="fill:#ffffff;fill-opacity:1;fill-rule:nonzero;stroke:none"
         id="path18" /><path
         d="m 4691.17,2532.71 c -22.4,0 -39.62,6.25 -51.66,18.77 -12.04,12.5 -18.06,30.53 -18.06,54.05 v 173.59 h -34.16 c -2.99,0 -5.51,0.88 -7.56,2.66 -2.06,1.77 -3.08,4.53 -3.08,8.26 v 19.88 l 46.48,5.88 11.48,87.64 c 0.37,2.81 1.58,5.1 3.64,6.85 2.06,1.78 4.66,2.68 7.84,2.68 h 25.2 v -97.74 h 81.2 v -36.11 h -81.2 v -170.23 c 0,-11.96 2.89,-20.82 8.68,-26.6 5.79,-5.81 13.26,-8.7 22.4,-8.7 5.22,0 9.75,0.71 13.58,2.11 3.82,1.41 7.14,2.93 9.94,4.61 2.79,1.7 5.18,3.23 7.14,4.63 1.96,1.41 3.68,2.11 5.18,2.11 2.61,0 4.95,-1.6 7,-4.76 l 14.56,-23.81 c -8.59,-8.03 -18.95,-14.32 -31.09,-18.89 -12.12,-4.57 -24.63,-6.88 -37.51,-6.88"
         style="fill:#ffffff;fill-opacity:1;fill-rule:nonzero;stroke:none"
         id="path20" /><path
         d="m 4800.08,2537.21 v 412.44 h 49.84 v -166.9 c 12.13,12.89 25.57,23.21 40.32,30.96 14.74,7.74 31.74,11.6 50.96,11.6 15.49,0 29.16,-2.56 41.02,-7.69 11.86,-5.14 21.75,-12.41 29.68,-21.84 7.94,-9.43 13.95,-20.76 18.06,-34.02 4.11,-13.24 6.17,-27.91 6.17,-43.97 v -180.58 h -49.85 v 180.58 c 0,21.47 -4.9,38.13 -14.69,49.98 -9.81,11.86 -24.79,17.8 -44.95,17.8 -14.74,0 -28.51,-3.56 -41.3,-10.65 -12.79,-7.09 -24.59,-16.7 -35.42,-28.85 v -208.86 h -49.84"
         style="fill:#ffffff;fill-opacity:1;fill-rule:nonzero;stroke:none"
         id="path22" /><path
         d="m 5210.84,2788.63 c -24.08,0 -43.02,-6.95 -56.83,-20.86 -13.82,-13.9 -22.41,-33.16 -25.76,-57.81 h 154.27 c 0,11.58 -1.58,22.17 -4.75,31.78 -3.18,9.61 -7.85,17.93 -14.01,24.92 -6.16,7.01 -13.67,12.42 -22.54,16.25 -8.86,3.81 -18.99,5.72 -30.38,5.72 z m -1.11,36.68 c 16.98,0 32.66,-2.83 47.03,-8.53 14.38,-5.69 26.79,-13.91 37.25,-24.63 10.45,-10.74 18.62,-24.01 24.5,-39.77 5.88,-15.78 8.82,-33.75 8.82,-53.9 0,-7.84 -0.84,-13.07 -2.52,-15.69 -1.68,-2.59 -4.87,-3.9 -9.52,-3.9 h -188.72 c 0.37,-17.93 2.8,-33.52 7.27,-46.76 4.48,-13.26 10.65,-24.32 18.49,-33.18 7.84,-8.87 17.17,-15.51 28,-19.89 10.82,-4.39 22.95,-6.58 36.39,-6.58 12.51,0 23.29,1.45 32.35,4.34 9.05,2.89 16.84,6.03 23.37,9.39 6.54,3.36 12,6.49 16.38,9.38 4.39,2.89 8.17,4.33 11.35,4.33 4.1,0 7.27,-1.58 9.51,-4.76 l 14,-18.21 c -6.16,-7.46 -13.53,-13.94 -22.11,-19.45 -8.59,-5.51 -17.79,-10.04 -27.58,-13.57 -9.81,-3.56 -19.93,-6.22 -30.38,-7.99 -10.46,-1.76 -20.82,-2.66 -31.09,-2.66 -19.6,0 -37.65,3.32 -54.18,9.94 -16.51,6.62 -30.8,16.33 -42.84,29.12 -12.03,12.78 -21.41,28.6 -28.13,47.46 -6.72,18.85 -10.08,40.51 -10.08,64.97 0,19.78 3.03,38.26 9.1,55.43 6.05,17.18 14.78,32.07 26.17,44.66 11.39,12.6 25.29,22.5 41.73,29.69 16.42,7.17 34.9,10.76 55.44,10.76"
         style="fill:#ffffff;fill-opacity:1;fill-rule:nonzero;stroke:none"
         id="path24" /><path
         d="m 5376.87,2537.21 v 283.63 h 28.56 c 5.41,0 9.14,-1.04 11.2,-3.09 2.05,-2.05 3.45,-5.58 4.2,-10.62 l 3.36,-44.24 c 9.7,19.77 21.7,35.22 35.98,46.33 14.28,11.11 31.03,16.66 50.26,16.66 7.83,0 14.93,-0.88 21.28,-2.66 6.34,-1.77 12.22,-4.26 17.64,-7.42 l -6.44,-37.25 c -1.31,-4.66 -4.2,-6.99 -8.68,-6.99 -2.62,0 -6.63,0.88 -12.04,2.66 -5.42,1.78 -12.98,2.66 -22.68,2.66 -17.36,0 -31.88,-5.04 -43.54,-15.12 -11.67,-10.08 -21.42,-24.73 -29.26,-43.97 v -180.58 h -49.84"
         style="fill:#ffffff;fill-opacity:1;fill-rule:nonzero;stroke:none"
         id="path26" /><path
         d="m 5588.55,2537.21 v 283.63 h 29.68 c 7.1,0 11.57,-3.46 13.44,-10.35 l 3.92,-30.8 c 12.32,13.61 26.08,24.63 41.3,33.02 15.21,8.4 32.8,12.6 52.78,12.6 15.49,0 29.16,-2.56 41.02,-7.69 11.85,-5.14 21.74,-12.41 29.67,-21.84 7.94,-9.43 13.96,-20.76 18.07,-34.02 4.1,-13.24 6.16,-27.91 6.16,-43.97 v -180.58 h -49.84 v 180.58 c 0,21.47 -4.9,38.13 -14.7,49.98 -9.8,11.86 -24.78,17.8 -44.94,17.8 -14.75,0 -28.52,-3.56 -41.3,-10.65 -12.79,-7.09 -24.6,-16.7 -35.42,-28.85 v -208.86 h -49.84"
         style="fill:#ffffff;fill-opacity:1;fill-rule:nonzero;stroke:none"
         id="path28" /><path
         d="m 6052.22,2537.21 h -54.32 v 401.23 h 54.32 v -401.23"
         style="fill:#ffffff;fill-opacity:1;fill-rule:nonzero;stroke:none"
         id="path30" /><path
         d="m 6137.9,2537.21 v 283.63 h 28.57 c 5.41,0 9.14,-1.04 11.2,-3.09 2.05,-2.05 3.45,-5.58 4.2,-10.62 l 3.36,-44.24 c 9.69,19.77 21.7,35.22 35.97,46.33 14.28,11.11 31.04,16.66 50.27,16.66 7.83,0 14.93,-0.88 21.28,-2.66 6.34,-1.77 12.21,-4.26 17.63,-7.42 l -6.43,-37.25 c -1.31,-4.66 -4.2,-6.99 -8.68,-6.99 -2.62,0 -6.63,0.88 -12.04,2.66 -5.42,1.78 -12.98,2.66 -22.69,2.66 -17.35,0 -31.87,-5.04 -43.53,-15.12 -11.67,-10.08 -21.42,-24.73 -29.26,-43.97 v -180.58 h -49.85"
         style="fill:#ffffff;fill-opacity:1;fill-rule:nonzero;stroke:none"
         id="path32" /><path
         d="m 6462.98,2788.63 c -24.08,0 -43.03,-6.95 -56.83,-20.86 -13.82,-13.9 -22.41,-33.16 -25.77,-57.81 h 154.28 c 0,11.58 -1.58,22.17 -4.75,31.78 -3.18,9.61 -7.85,17.93 -14.01,24.92 -6.16,7.01 -13.67,12.42 -22.54,16.25 -8.86,3.81 -18.99,5.72 -30.38,5.72 z m -1.11,36.68 c 16.98,0 32.65,-2.83 47.03,-8.53 14.37,-5.69 26.79,-13.91 37.25,-24.63 10.44,-10.74 18.62,-24.01 24.5,-39.77 5.88,-15.78 8.82,-33.75 8.82,-53.9 0,-7.84 -0.84,-13.07 -2.52,-15.69 -1.68,-2.59 -4.87,-3.9 -9.53,-3.9 H 6378.7 c 0.38,-17.93 2.81,-33.52 7.28,-46.76 4.48,-13.26 10.64,-24.32 18.49,-33.18 7.84,-8.87 17.16,-15.51 27.99,-19.89 10.82,-4.39 22.96,-6.58 36.4,-6.58 12.51,0 23.29,1.45 32.34,4.34 9.06,2.89 16.85,6.03 23.38,9.39 6.54,3.36 12,6.49 16.38,9.38 4.38,2.89 8.16,4.33 11.35,4.33 4.1,0 7.27,-1.58 9.51,-4.76 l 14,-18.21 c -6.16,-7.46 -13.53,-13.94 -22.12,-19.45 -8.58,-5.51 -17.78,-10.04 -27.57,-13.57 -9.81,-3.56 -19.94,-6.22 -30.38,-7.99 -10.46,-1.76 -20.83,-2.66 -31.09,-2.66 -19.6,0 -37.65,3.32 -54.18,9.94 -16.51,6.62 -30.8,16.33 -42.84,29.12 -12.03,12.78 -21.42,28.6 -28.13,47.46 -6.72,18.85 -10.08,40.51 -10.08,64.97 0,19.78 3.02,38.26 9.1,55.43 6.05,17.18 14.78,32.07 26.17,44.66 11.39,12.6 25.29,22.5 41.73,29.69 16.41,7.17 34.9,10.76 55.44,10.76"
         style="fill:#ffffff;fill-opacity:1;fill-rule:nonzero;stroke:none"
         id="path34" /><path
         d="m 6684.46,2949.65 v -412.44 h -49.84 v 412.44 h 49.84"
         style="fill:#ffffff;fill-opacity:1;fill-rule:nonzero;stroke:none"
         id="path36" /><path
         d="m 6837.34,2567.71 c 8.77,0 16.79,0.9 24.07,2.68 7.28,1.76 14.14,4.28 20.59,7.56 6.43,3.26 12.59,7.23 18.47,11.89 5.88,4.67 11.62,9.98 17.22,15.96 v 58.52 c -22.96,0 -42.46,-1.45 -58.52,-4.36 -16.05,-2.91 -29.12,-6.72 -39.2,-11.41 -10.07,-4.7 -17.41,-10.23 -21.98,-16.62 -4.57,-6.38 -6.85,-13.51 -6.85,-21.4 0,-7.5 1.21,-13.99 3.63,-19.44 2.43,-5.45 5.69,-9.9 9.8,-13.38 4.1,-3.47 8.96,-6.01 14.56,-7.59 5.6,-1.6 11.66,-2.41 18.21,-2.41 z m 129.35,-30.5 h -22.12 c -4.85,0 -8.78,0.74 -11.75,2.22 -2.99,1.51 -4.96,4.67 -5.88,9.53 l -5.61,26.31 c -7.47,-6.72 -14.74,-12.73 -21.83,-18.04 -7.1,-5.34 -14.57,-9.81 -22.41,-13.44 -7.84,-3.65 -16.19,-6.41 -25.06,-8.26 -8.86,-1.88 -18.72,-2.82 -29.54,-2.82 -11.01,0 -21.32,1.57 -30.93,4.65 -9.62,3.09 -17.97,7.72 -25.06,13.91 -7.1,6.17 -12.75,14 -16.95,23.46 -4.2,9.45 -6.29,20.64 -6.29,33.57 0,11.23 3.07,22.05 9.23,32.44 6.17,10.41 16.11,19.63 29.83,27.68 13.71,8.06 31.68,14.67 53.89,19.82 22.21,5.14 49.38,7.72 81.48,7.72 v 22.26 c 0,22.17 -4.71,38.93 -14.13,50.3 -9.44,11.36 -23.39,17.05 -41.87,17.05 -12.14,0 -22.35,-1.55 -30.66,-4.63 -8.3,-3.07 -15.49,-6.53 -21.55,-10.35 -6.08,-3.83 -11.3,-7.29 -15.69,-10.38 -4.38,-3.06 -8.73,-4.6 -13.02,-4.6 -3.35,0 -6.29,0.87 -8.81,2.65 -2.52,1.78 -4.54,3.97 -6.03,6.58 l -8.95,15.96 c 15.67,15.12 32.56,26.41 50.67,33.89 18.11,7.46 38.17,11.19 60.2,11.19 15.86,0 29.97,-2.62 42.28,-7.83 12.32,-5.24 22.69,-12.52 31.08,-21.84 8.4,-9.33 14.75,-20.64 19.05,-33.89 4.28,-13.26 6.43,-27.81 6.43,-43.69 v -181.42"
         style="fill:#ffffff;fill-opacity:1;fill-rule:nonzero;stroke:none"
         id="path38" /><path
         d="m 7028.28,2537.21 v 283.63 h 29.68 c 7.1,0 11.57,-3.46 13.45,-10.35 l 3.92,-30.8 c 12.32,13.61 26.08,24.63 41.29,33.02 15.22,8.4 32.81,12.6 52.79,12.6 15.49,0 29.16,-2.56 41.02,-7.69 11.84,-5.14 21.74,-12.41 29.67,-21.84 7.93,-9.43 13.97,-20.76 18.07,-34.02 4.1,-13.24 6.15,-27.91 6.15,-43.97 v -180.58 h -49.84 v 180.58 c 0,21.47 -4.89,38.13 -14.69,49.98 -9.81,11.86 -24.79,17.8 -44.94,17.8 -14.75,0 -28.52,-3.56 -41.3,-10.65 -12.79,-7.09 -24.6,-16.7 -35.42,-28.85 v -208.86 h -49.85"
         style="fill:#ffffff;fill-opacity:1;fill-rule:nonzero;stroke:none"
         id="path40" /><path
         d="m 7428.69,2573.59 c 16.23,0 30.47,3.75 42.7,11.21 12.23,7.47 23.48,18.01 33.73,31.65 v 137.18 c -9.14,12.33 -19.18,20.96 -30.1,25.92 -10.92,4.94 -23.01,7.4 -36.25,7.4 -26.5,0 -46.85,-9.41 -61.03,-28.26 -14.2,-18.87 -21.29,-45.74 -21.29,-80.64 0,-18.48 1.58,-34.3 4.76,-47.46 3.17,-13.17 7.84,-23.99 14.01,-32.48 6.15,-8.5 13.71,-14.71 22.67,-18.64 8.95,-3.9 19.22,-5.88 30.8,-5.88 z m 96.61,-36.38 c -7.11,0 -11.59,3.43 -13.46,10.35 l -4.47,34.45 c -12.13,-14.76 -26,-26.56 -41.59,-35.43 -15.58,-8.87 -33.45,-13.3 -53.61,-13.3 -16.25,0 -31,3.13 -44.24,9.38 -13.26,6.25 -24.55,15.45 -33.88,27.57 -9.34,12.15 -16.53,27.27 -21.57,45.38 -5.04,18.1 -7.56,38.92 -7.56,62.44 0,20.9 2.82,40.35 8.4,58.38 5.61,18 13.68,33.63 24.22,46.89 10.55,13.26 23.38,23.65 38.52,31.23 15.11,7.56 32.28,11.33 51.5,11.33 17.36,0 32.21,-2.93 44.53,-8.81 12.33,-5.88 23.32,-14.14 33.03,-24.78 v 157.36 h 49.84 v -412.44 h -29.66"
         style="fill:#ffffff;fill-opacity:1;fill-rule:nonzero;stroke:none"
         id="path42" /><path
         d="m 4024.05,2280.64 c -2.5,-4.16 -5.15,-7.28 -7.91,-9.35 -2.79,-2.09 -6.4,-3.13 -10.83,-3.13 -4.73,0 -10.21,2.35 -16.45,7.07 -6.25,4.73 -14.16,9.93 -23.74,15.63 -9.58,5.68 -21.1,10.88 -34.56,15.6 -13.47,4.73 -29.78,7.09 -48.94,7.09 -18.04,0 -34,-2.44 -47.89,-7.28 -13.87,-4.86 -25.47,-11.47 -34.76,-19.79 -9.31,-8.34 -16.31,-18.12 -21.04,-29.35 -4.71,-11.25 -7.07,-23.4 -7.07,-36.45 0,-16.66 4.09,-30.47 12.29,-41.42 8.18,-10.98 19,-20.35 32.48,-28.13 13.46,-7.77 28.73,-14.49 45.8,-20.19 17.07,-5.69 34.56,-11.58 52.47,-17.7 17.91,-6.11 35.4,-12.97 52.47,-20.6 17.07,-7.64 32.33,-17.29 45.81,-28.95 13.46,-11.66 24.29,-25.96 32.48,-42.89 8.18,-16.93 12.29,-37.75 12.29,-62.46 0,-26.09 -4.46,-50.61 -13.33,-73.5 -8.89,-22.91 -21.87,-42.83 -38.94,-59.76 -17.07,-16.94 -38.04,-30.26 -62.88,-39.98 -24.84,-9.71 -53.1,-14.57 -84.75,-14.57 -38.58,0 -73.78,7.01 -105.55,21.03 -31.8,14.01 -58.93,32.97 -81.42,56.84 l 23.32,38.32 c 2.22,3.05 4.93,5.6 8.13,7.69 3.18,2.09 6.73,3.13 10.61,3.13 5.83,0 12.49,-3.13 19.99,-9.38 7.49,-6.25 16.87,-13.1 28.11,-20.6 11.25,-7.5 24.84,-14.38 40.81,-20.61 15.96,-6.25 35.46,-9.37 58.5,-9.37 19.16,0 36.23,2.63 51.22,7.91 14.99,5.27 27.7,12.69 38.11,22.28 10.41,9.57 18.39,21.02 23.95,34.36 5.54,13.32 8.33,28.16 8.33,44.55 0,18.05 -4.11,32.83 -12.29,44.36 -8.19,11.5 -18.95,21.15 -32.28,28.92 -13.33,7.77 -28.52,14.38 -45.59,19.79 -17.08,5.41 -34.57,10.95 -52.47,16.66 -17.91,5.68 -35.4,12.28 -52.47,19.78 -17.07,7.48 -32.28,17.21 -45.6,29.14 -13.33,11.94 -24.09,26.86 -32.27,44.77 -8.2,17.91 -12.29,40.04 -12.29,66.42 0,21.1 4.09,41.51 12.29,61.21 8.18,19.71 20.05,37.21 35.6,52.47 15.55,15.27 34.77,27.5 57.68,36.66 22.9,9.16 49.2,13.73 78.9,13.73 33.32,0 63.72,-5.28 91.21,-15.82 27.48,-10.55 51.49,-25.82 72.04,-45.81 l -19.57,-38.32"
         style="fill:#ffffff;fill-opacity:1;fill-rule:nonzero;stroke:none"
         id="path44" /><path
         d="m 4255.16,1770.53 c -33.32,0 -58.93,9.29 -76.84,27.91 -17.9,18.59 -26.85,45.39 -26.85,80.37 v 258.18 h -50.8 c -4.45,0 -8.2,1.31 -11.25,3.95 -3.06,2.63 -4.58,6.74 -4.58,12.28 v 29.57 l 69.13,8.75 17.07,130.34 c 0.55,4.16 2.35,7.55 5.41,10.19 3.06,2.64 6.94,3.97 11.66,3.97 h 37.48 V 2190.7 h 120.76 v -53.71 h -120.76 v -253.2 c 0,-17.75 4.31,-30.96 12.91,-39.55 8.6,-8.62 19.71,-12.91 33.31,-12.91 7.77,0 14.51,1.03 20.2,3.12 5.69,2.07 10.62,4.38 14.78,6.88 4.17,2.5 7.71,4.78 10.63,6.85 2.91,2.09 5.47,3.13 7.7,3.13 3.88,0 7.35,-2.36 10.41,-7.07 l 21.65,-35.39 c -12.77,-11.96 -28.18,-21.31 -46.22,-28.13 -18.05,-6.79 -36.65,-10.19 -55.8,-10.19"
         style="fill:#ffffff;fill-opacity:1;fill-rule:nonzero;stroke:none"
         id="path46" /><path
         d="m 4534.57,1822.58 c 13.05,0 24.98,1.33 35.81,3.96 10.83,2.64 21.03,6.39 30.61,11.23 9.58,4.87 18.74,10.77 27.48,17.72 8.75,6.93 17.29,14.84 25.62,23.73 v 87.03 c -34.16,0 -63.17,-2.17 -87.04,-6.5 -23.87,-4.32 -43.31,-9.98 -58.3,-16.96 -14.99,-6.97 -25.89,-15.21 -32.68,-24.7 -6.81,-9.52 -10.21,-20.12 -10.21,-31.84 0,-11.17 1.8,-20.8 5.41,-28.91 3.61,-8.1 8.47,-14.72 14.58,-19.9 6.11,-5.15 13.32,-8.92 21.65,-11.31 8.33,-2.36 17.35,-3.55 27.07,-3.55 z m 192.39,-45.39 h -32.89 c -7.23,0 -13.06,1.09 -17.49,3.32 -4.45,2.22 -7.37,6.95 -8.75,14.18 l -8.33,39.14 c -11.11,-10 -21.94,-18.95 -32.49,-26.86 -10.54,-7.91 -21.65,-14.59 -33.31,-20 -11.66,-5.41 -24.09,-9.51 -37.27,-12.28 -13.18,-2.78 -27.83,-4.16 -43.93,-4.16 -16.38,0 -31.72,2.3 -46.01,6.89 -14.31,4.59 -26.73,11.49 -37.28,20.69 -10.54,9.19 -18.94,20.82 -25.19,34.9 -6.24,14.06 -9.37,30.7 -9.37,49.92 0,16.72 4.58,32.79 13.74,48.26 9.16,15.47 23.95,29.18 44.36,41.15 20.4,12 47.12,21.8 80.15,29.48 33.04,7.65 73.43,11.48 121.19,11.48 v 33.11 c 0,32.96 -7.02,57.89 -21.03,74.8 -14.02,16.9 -34.78,25.35 -62.26,25.35 -18.05,0 -33.25,-2.28 -45.6,-6.87 -12.36,-4.57 -23.05,-9.73 -32.06,-15.41 -9.03,-5.69 -16.8,-10.82 -23.32,-15.41 -6.53,-4.57 -12.98,-6.86 -19.37,-6.86 -5,0 -9.36,1.31 -13.11,3.95 -3.75,2.63 -6.74,5.9 -8.96,9.78 l -13.32,23.73 c 23.31,22.5 48.44,39.3 75.37,50.39 26.93,11.12 56.77,16.66 89.53,16.66 23.6,0 44.55,-3.88 62.88,-11.66 18.33,-7.77 33.74,-18.59 46.23,-32.48 12.49,-13.88 21.92,-30.68 28.32,-50.39 6.37,-19.7 9.57,-41.37 9.57,-64.96 v -269.84"
         style="fill:#ffffff;fill-opacity:1;fill-rule:nonzero;stroke:none"
         id="path48" /><path
         d="m 4946.4,1770.53 c -33.32,0 -58.93,9.29 -76.84,27.91 -17.9,18.59 -26.85,45.39 -26.85,80.37 v 258.18 h -50.8 c -4.45,0 -8.2,1.31 -11.25,3.95 -3.06,2.63 -4.58,6.74 -4.58,12.28 v 29.57 l 69.13,8.75 17.07,130.34 c 0.56,4.16 2.35,7.55 5.41,10.19 3.06,2.64 6.94,3.97 11.66,3.97 h 37.48 V 2190.7 h 120.76 v -53.71 h -120.76 v -253.2 c 0,-17.75 4.31,-30.96 12.91,-39.55 8.6,-8.62 19.71,-12.91 33.31,-12.91 7.77,0 14.51,1.03 20.21,3.12 5.68,2.07 10.61,4.38 14.77,6.88 4.17,2.5 7.71,4.78 10.63,6.85 2.91,2.09 5.47,3.13 7.7,3.13 3.88,0 7.35,-2.36 10.41,-7.07 l 21.65,-35.39 c -12.77,-11.96 -28.18,-21.31 -46.22,-28.13 -18.05,-6.79 -36.65,-10.19 -55.8,-10.19"
         style="fill:#ffffff;fill-opacity:1;fill-rule:nonzero;stroke:none"
         id="path50" /><path
         d="m 5116.71,1777.19 h 74.12 v 421.83 h -74.12 v -421.83"
         style="fill:#ffffff;fill-opacity:1;fill-rule:nonzero;stroke:none"
         id="path52" /><path
         d="m 5542.29,2129.49 c -3.33,-6.11 -8.47,-9.16 -15.41,-9.16 -4.16,0 -8.89,1.53 -14.16,4.57 -5.28,3.05 -11.73,6.47 -19.36,10.22 -7.64,3.73 -16.73,7.2 -27.27,10.41 -10.56,3.18 -23.05,4.78 -37.48,4.78 -12.49,0 -23.74,-1.6 -33.73,-4.78 -10,-3.21 -18.54,-7.58 -25.62,-13.13 -7.08,-5.54 -12.49,-12.01 -16.24,-19.35 -3.75,-7.37 -5.61,-15.35 -5.61,-23.95 0,-10.84 3.11,-19.86 9.36,-27.07 6.25,-7.23 14.5,-13.48 24.78,-18.75 10.27,-5.27 21.93,-9.92 34.98,-13.94 13.04,-4.03 26.44,-8.32 40.18,-12.91 13.74,-4.57 27.13,-9.65 40.19,-15.2 13.04,-5.57 24.7,-12.5 34.98,-20.82 10.26,-8.34 18.53,-18.54 24.77,-30.61 6.25,-12.09 9.38,-26.58 9.38,-43.51 0,-19.43 -3.48,-37.42 -10.41,-53.93 -6.95,-16.52 -17.22,-30.82 -30.82,-42.89 -13.61,-12.09 -30.27,-21.6 -49.97,-28.53 -19.72,-6.94 -42.47,-10.41 -68.29,-10.41 -29.44,0 -56.09,4.78 -79.95,14.35 -23.89,9.59 -44.16,21.88 -60.81,36.88 l 17.49,28.3 c 2.22,3.61 4.86,6.39 7.91,8.34 3.05,1.93 7.08,2.91 12.08,2.91 5,0 10.27,-1.95 15.83,-5.82 5.54,-3.91 12.28,-8.2 20.19,-12.91 7.91,-4.73 17.49,-9.03 28.73,-12.91 11.25,-3.91 25.33,-5.84 42.28,-5.84 14.42,0 27.06,1.87 37.89,5.62 10.83,3.75 19.84,8.81 27.07,15.2 7.21,6.39 12.56,13.75 16.02,22.07 3.48,8.34 5.21,17.21 5.21,26.66 0,11.66 -3.12,21.29 -9.37,28.94 -6.25,7.62 -14.51,14.16 -24.77,19.57 -10.28,5.41 -22.01,10.12 -35.19,14.16 -13.19,4.01 -26.66,8.25 -40.4,12.7 -13.74,4.43 -27.21,9.51 -40.39,15.2 -13.19,5.68 -24.92,12.83 -35.19,21.44 -10.27,8.61 -18.53,19.22 -24.77,31.86 -6.25,12.63 -9.38,27.96 -9.38,46.01 0,16.1 3.33,31.58 10,46.43 6.66,14.86 16.38,27.91 29.15,39.16 12.77,11.23 28.45,20.19 47.06,26.85 18.59,6.66 39.83,10 63.71,10 27.76,0 52.67,-4.37 74.74,-13.12 22.07,-8.75 41.16,-20.76 57.27,-36.02 l -16.66,-27.07"
         style="fill:#ffffff;fill-opacity:1;fill-rule:nonzero;stroke:none"
         id="path54" /><path
         d="m 5769.24,1770.53 c -33.32,0 -58.92,9.29 -76.83,27.91 -17.9,18.59 -26.86,45.39 -26.86,80.37 v 258.18 h -50.8 c -4.44,0 -8.19,1.31 -11.25,3.95 -3.06,2.63 -4.58,6.74 -4.58,12.28 v 29.57 l 69.13,8.75 17.07,130.34 c 0.56,4.16 2.35,7.55 5.41,10.19 3.06,2.64 6.94,3.97 11.66,3.97 h 37.48 V 2190.7 h 120.76 v -53.71 h -120.76 v -253.2 c 0,-17.75 4.31,-30.96 12.91,-39.55 8.6,-8.62 19.71,-12.91 33.31,-12.91 7.78,0 14.51,1.03 20.21,3.12 5.68,2.07 10.61,4.38 14.77,6.88 4.17,2.5 7.71,4.78 10.63,6.85 2.91,2.09 5.48,3.13 7.7,3.13 3.88,0 7.36,-2.36 10.41,-7.07 l 21.65,-35.39 c -12.77,-11.96 -28.18,-21.31 -46.22,-28.13 -18.04,-6.79 -36.65,-10.19 -55.8,-10.19"
         style="fill:#ffffff;fill-opacity:1;fill-rule:nonzero;stroke:none"
         id="path56" /><path
         d="m 5939.54,1777.19 h 74.13 v 421.83 h -74.13 v -421.83"
         style="fill:#ffffff;fill-opacity:1;fill-rule:nonzero;stroke:none"
         id="path58" /><path
         d="m 6411.34,2124.08 c -2.23,-3.06 -4.44,-5.43 -6.66,-7.09 -2.23,-1.66 -5.41,-2.5 -9.58,-2.5 -4.16,0 -8.68,1.74 -13.53,5.22 -4.86,3.45 -11.04,7.28 -18.53,11.44 -7.5,4.16 -16.59,7.97 -27.28,11.45 -10.69,3.47 -23.8,5.21 -39.35,5.21 -20.55,0 -38.73,-3.69 -54.55,-11.03 -15.82,-7.37 -29.08,-17.99 -39.77,-31.86 -10.69,-13.88 -18.74,-30.68 -24.16,-50.39 -5.41,-19.71 -8.11,-41.78 -8.11,-66.21 0,-25.55 2.91,-48.24 8.74,-68.09 5.83,-19.84 14.02,-36.5 24.57,-49.98 10.54,-13.45 23.39,-23.73 38.52,-30.8 15.13,-7.09 32.13,-10.62 51.01,-10.62 18.05,0 32.9,2.15 44.56,6.46 11.66,4.3 21.38,9.08 29.15,14.36 7.76,5.27 14.16,10.06 19.15,14.37 5,4.3 10,6.45 15,6.45 6.38,0 11.09,-2.36 14.15,-7.07 l 20.82,-27.07 c -18.32,-22.5 -41.22,-38.95 -68.7,-49.36 -27.49,-10.41 -56.5,-15.6 -87.04,-15.6 -26.38,0 -50.87,4.84 -73.5,14.57 -22.62,9.7 -42.26,23.81 -58.92,42.26 -16.65,18.46 -29.78,41.16 -39.35,68.09 -9.58,26.93 -14.37,57.6 -14.37,92.03 0,31.37 4.37,60.39 13.12,87.03 8.74,26.66 21.51,49.63 38.31,68.93 16.79,19.27 37.54,34.35 62.26,45.17 24.71,10.82 53.02,16.25 84.95,16.25 29.42,0 55.52,-4.8 78.28,-14.37 22.76,-9.57 42.89,-23.11 60.38,-40.61 l -19.57,-26.64"
         style="fill:#ffffff;fill-opacity:1;fill-rule:nonzero;stroke:none"
         id="path60" /><path
         d="m 6733.24,2129.49 c -3.33,-6.11 -8.47,-9.16 -15.41,-9.16 -4.16,0 -8.89,1.53 -14.16,4.57 -5.28,3.05 -11.73,6.47 -19.36,10.22 -7.65,3.73 -16.73,7.2 -27.28,10.41 -10.55,3.18 -23.04,4.78 -37.48,4.78 -12.49,0 -23.74,-1.6 -33.73,-4.78 -10,-3.21 -18.53,-7.58 -25.61,-13.13 -7.08,-5.54 -12.49,-12.01 -16.24,-19.35 -3.75,-7.37 -5.62,-15.35 -5.62,-23.95 0,-10.84 3.12,-19.86 9.37,-27.07 6.25,-7.23 14.5,-13.48 24.77,-18.75 10.28,-5.27 21.94,-9.92 34.98,-13.94 13.05,-4.03 26.45,-8.32 40.19,-12.91 13.74,-4.57 27.13,-9.65 40.18,-15.2 13.05,-5.57 24.71,-12.5 34.99,-20.82 10.26,-8.34 18.53,-18.54 24.77,-30.61 6.25,-12.09 9.38,-26.58 9.38,-43.51 0,-19.43 -3.48,-37.42 -10.41,-53.93 -6.95,-16.52 -17.22,-30.82 -30.82,-42.89 -13.61,-12.09 -30.27,-21.6 -49.98,-28.53 -19.71,-6.94 -42.47,-10.41 -68.29,-10.41 -29.43,0 -56.08,4.78 -79.95,14.35 -23.88,9.59 -44.15,21.88 -60.8,36.88 l 17.49,28.3 c 2.22,3.61 4.86,6.39 7.91,8.34 3.05,1.93 7.08,2.91 12.08,2.91 4.99,0 10.27,-1.95 15.82,-5.82 5.55,-3.91 12.29,-8.2 20.2,-12.91 7.91,-4.73 17.49,-9.03 28.73,-12.91 11.25,-3.91 25.33,-5.84 42.27,-5.84 14.43,0 27.06,1.87 37.89,5.62 10.83,3.75 19.85,8.81 27.07,15.2 7.22,6.39 12.56,13.75 16.03,22.07 3.48,8.34 5.2,17.21 5.2,26.66 0,11.66 -3.11,21.29 -9.36,28.94 -6.25,7.62 -14.51,14.16 -24.78,19.57 -10.27,5.41 -22.01,10.12 -35.18,14.16 -13.19,4.01 -26.66,8.25 -40.4,12.7 -13.74,4.43 -27.21,9.51 -40.39,15.2 -13.2,5.68 -24.92,12.83 -35.19,21.44 -10.27,8.61 -18.53,19.22 -24.77,31.86 -6.25,12.63 -9.38,27.96 -9.38,46.01 0,16.1 3.33,31.58 10,46.43 6.66,14.86 16.38,27.91 29.14,39.16 12.78,11.23 28.46,20.19 47.06,26.85 18.6,6.66 39.84,10 63.71,10 27.77,0 52.68,-4.37 74.75,-13.12 22.07,-8.75 41.16,-20.76 57.27,-36.02 l -16.66,-27.07"
         style="fill:#ffffff;fill-opacity:1;fill-rule:nonzero;stroke:none"
         id="path62" /><path
         d="m 3755.45,1182.08 c 0,-18.04 3.33,-33.94 9.99,-47.67 6.66,-13.75 15.41,-25.33 26.24,-34.77 10.82,-9.45 23.18,-16.6 37.06,-21.44 13.88,-4.87 28.04,-7.31 42.47,-7.31 31.1,0 59,5.71 83.71,17.09 24.7,11.37 46.5,26.51 65.38,45.39 l -176.15,177.82 c -29.43,-15.84 -51.57,-34.79 -66.42,-56.86 -14.86,-22.07 -22.28,-46.15 -22.28,-72.25 z m 165.32,438.5 c 21.93,0 41.92,-3.53 59.97,-10.62 18.04,-7.07 33.66,-16.45 46.84,-28.11 13.18,-11.66 23.59,-25.19 31.23,-40.6 7.64,-15.4 12.01,-31.43 13.13,-48.09 l -46.23,-9.16 c -1.39,-0.29 -2.64,-0.43 -3.74,-0.43 -3.62,0 -7.03,0.98 -10.21,2.93 -3.19,1.93 -5.49,5.41 -6.87,10.41 -1.95,7.21 -5.07,14.71 -9.37,22.48 -4.31,7.77 -9.86,14.84 -16.66,21.23 -6.81,6.39 -14.99,11.66 -24.57,15.84 -9.57,4.16 -20.75,6.23 -33.52,6.23 -13.88,0 -26.37,-2.21 -37.48,-6.66 -11.1,-4.43 -20.61,-10.61 -28.52,-18.52 -7.91,-7.93 -14.02,-17.22 -18.32,-27.91 -4.31,-10.68 -6.46,-22.28 -6.46,-34.76 0,-9.73 1.18,-19.02 3.54,-27.91 2.35,-8.89 5.9,-17.83 10.62,-26.86 4.72,-9.02 10.82,-18.32 18.32,-27.89 7.49,-9.59 16.52,-19.65 27.07,-30.19 l 171.57,-174.49 c 10.54,18.59 18.94,38.1 25.19,58.51 6.24,20.41 10.48,40.88 12.7,61.43 0.55,5.27 2.22,9.43 5,12.48 2.77,3.06 6.66,4.59 11.66,4.59 h 45.81 c -0.57,-31.94 -5.7,-63.3 -15.41,-94.12 -9.73,-30.81 -23.74,-59.69 -42.06,-86.61 l 124.93,-126.6 h -71.63 c -8.06,0 -14.57,0.98 -19.57,2.91 -5,1.96 -10.56,5.98 -16.66,12.09 l -59.96,60.37 c -26.1,-25.25 -56.16,-45.25 -90.16,-59.96 -34.01,-14.72 -71.42,-22.07 -112.23,-22.07 -22.21,0 -44,3.75 -65.38,11.25 -21.37,7.48 -40.46,18.38 -57.25,32.68 -16.8,14.3 -30.33,31.72 -40.61,52.26 -10.27,20.55 -15.4,43.73 -15.4,69.55 0,19.42 3.25,37.82 9.79,55.18 6.51,17.34 15.53,33.38 27.06,48.09 11.52,14.7 25.19,27.91 41.02,39.57 15.82,11.66 33.17,21.64 52.05,29.98 -16.93,21.36 -29.43,42.18 -37.48,62.46 -8.05,20.25 -12.07,41.23 -12.07,62.87 0,20.27 3.67,39.3 11.04,57.05 7.34,17.77 17.97,33.24 31.85,46.45 13.88,13.18 30.75,23.59 50.6,31.23 19.84,7.61 42.12,11.44 66.83,11.44"
         style="fill:#ffffff;fill-opacity:1;fill-rule:nonzero;stroke:none"
         id="path64" /><path
         d="m 4511.65,1324.92 h 84.54 c 23.6,0 44.35,2.85 62.26,8.53 17.9,5.69 32.89,13.75 44.97,24.16 12.08,10.41 21.16,22.83 27.28,37.27 6.1,14.43 9.16,30.41 9.16,47.89 0,35.53 -11.73,62.32 -35.19,80.37 -23.47,18.05 -58.37,27.07 -104.74,27.07 h -88.28 z m 0,-58.71 v -249.03 h -80.36 v 596.74 h 168.64 c 37.76,0 70.39,-3.83 97.87,-11.44 27.49,-7.66 50.18,-18.7 68.08,-33.11 17.91,-14.45 31.16,-31.86 39.78,-52.27 8.59,-20.41 12.9,-43.24 12.9,-68.51 0,-21.09 -3.33,-40.8 -9.99,-59.12 -6.66,-18.32 -16.31,-34.77 -28.95,-49.36 -12.62,-14.57 -28.03,-26.99 -46.22,-37.26 -18.18,-10.28 -38.8,-18.05 -61.83,-23.32 9.99,-5.82 18.87,-14.3 26.65,-25.39 l 174.06,-236.96 h -71.62 c -14.72,0 -25.55,5.69 -32.48,17.07 l -154.92,213.21 c -4.72,6.68 -9.85,11.46 -15.41,14.37 -5.55,2.91 -13.88,4.38 -24.98,4.38 h -61.22"
         style="fill:#ffffff;fill-opacity:1;fill-rule:nonzero;stroke:none"
         id="path66" /><path
         d="m 5095.49,1391.13 c -35.82,0 -63.99,-10.33 -84.54,-31.02 -20.55,-20.68 -33.31,-49.35 -38.31,-85.99 h 229.45 c 0,17.2 -2.36,32.96 -7.08,47.26 -4.72,14.3 -11.66,26.64 -20.82,37.07 -9.16,10.41 -20.34,18.46 -33.52,24.14 -13.19,5.69 -28.25,8.54 -45.18,8.54 z m -1.67,54.55 c 25.27,0 48.59,-4.24 69.96,-12.7 21.38,-8.47 39.84,-20.68 55.38,-36.64 15.55,-15.97 27.7,-35.68 36.44,-59.14 8.75,-23.45 13.12,-50.17 13.12,-80.15 0,-11.66 -1.25,-19.44 -3.75,-23.32 -2.5,-3.89 -7.22,-5.84 -14.16,-5.84 h -280.67 c 0.56,-26.64 4.17,-49.83 10.83,-69.54 6.66,-19.72 15.83,-36.17 27.49,-49.35 11.65,-13.18 25.54,-23.05 41.64,-29.57 16.09,-6.52 34.14,-9.79 54.13,-9.79 18.6,0 34.63,2.15 48.1,6.47 13.46,4.3 25.05,8.94 34.77,13.94 9.72,5 17.83,9.65 24.36,13.95 6.52,4.32 12.15,6.46 16.86,6.46 6.11,0 10.83,-2.36 14.16,-7.09 l 20.82,-27.05 c -9.16,-11.11 -20.12,-20.76 -32.89,-28.94 -12.77,-8.21 -26.44,-14.92 -41.02,-20.2 -14.57,-5.27 -29.63,-9.24 -45.18,-11.87 -15.55,-2.64 -30.95,-3.95 -46.22,-3.95 -29.15,0 -56.01,4.92 -80.58,14.77 -24.57,9.86 -45.81,24.29 -63.72,43.32 -17.9,19 -31.85,42.54 -41.84,70.58 -10,28.03 -15,60.24 -15,96.61 0,29.43 4.51,56.91 13.53,82.46 9.03,25.52 22.01,47.67 38.94,66.4 16.93,18.75 37.62,33.46 62.05,44.14 24.42,10.69 51.91,16.04 82.45,16.04"
         style="fill:#ffffff;fill-opacity:1;fill-rule:nonzero;stroke:none"
         id="path68" /><path
         d="m 5583.94,1369.49 c -3.33,-6.12 -8.47,-9.18 -15.41,-9.18 -4.16,0 -8.89,1.52 -14.16,4.59 -5.28,3.04 -11.73,6.44 -19.36,10.19 -7.64,3.75 -16.73,7.23 -27.27,10.41 -10.56,3.21 -23.05,4.81 -37.48,4.81 -12.49,0 -23.74,-1.6 -33.73,-4.81 -10,-3.18 -18.54,-7.56 -25.62,-13.1 -7.08,-5.57 -12.49,-12.01 -16.24,-19.38 -3.75,-7.34 -5.61,-15.33 -5.61,-23.94 0,-10.82 3.11,-19.85 9.36,-27.05 6.25,-7.23 14.5,-13.48 24.78,-18.75 10.27,-5.28 21.93,-9.93 34.98,-13.95 13.04,-4.02 26.44,-8.34 40.18,-12.91 13.74,-4.59 27.13,-9.65 40.19,-15.19 13.04,-5.57 24.71,-12.5 34.98,-20.82 10.26,-8.34 18.53,-18.54 24.77,-30.61 6.25,-12.09 9.38,-26.6 9.38,-43.54 0,-19.43 -3.48,-37.4 -10.41,-53.92 -6.94,-16.51 -17.22,-30.8 -30.82,-42.89 -13.61,-12.07 -30.27,-21.58 -49.97,-28.52 -19.72,-6.93 -42.47,-10.41 -68.29,-10.41 -29.44,0 -56.09,4.79 -79.95,14.36 -23.89,9.59 -44.15,21.87 -60.81,36.85 l 17.49,28.32 c 2.22,3.62 4.86,6.39 7.92,8.34 3.04,1.94 7.08,2.91 12.08,2.91 4.99,0 10.26,-1.95 15.82,-5.84 5.54,-3.88 12.28,-8.18 20.19,-12.91 7.91,-4.7 17.49,-9.02 28.73,-12.91 11.25,-3.88 25.33,-5.82 42.28,-5.82 14.42,0 27.06,1.88 37.89,5.63 10.83,3.75 19.84,8.81 27.07,15.19 7.21,6.39 12.56,13.75 16.02,22.07 3.48,8.32 5.21,17.21 5.21,26.66 0,11.66 -3.12,21.29 -9.37,28.93 -6.25,7.64 -14.51,14.16 -24.77,19.57 -10.28,5.43 -22.01,10.14 -35.19,14.16 -13.19,4.02 -26.66,8.26 -40.4,12.72 -13.74,4.43 -27.21,9.49 -40.39,15.19 -13.19,5.68 -24.92,12.83 -35.18,21.45 -10.28,8.59 -18.54,19.21 -24.78,31.85 -6.25,12.64 -9.38,27.97 -9.38,46.02 0,16.09 3.34,31.58 10,46.42 6.67,14.85 16.38,27.91 29.15,39.14 12.77,11.25 28.45,20.2 47.06,26.88 18.59,6.66 39.83,9.98 63.71,9.98 27.76,0 52.67,-4.38 74.74,-13.11 22.07,-8.75 41.17,-20.76 57.27,-36.03 l -16.66,-27.05"
         style="fill:#ffffff;fill-opacity:1;fill-rule:nonzero;stroke:none"
         id="path70" /><path
         d="m 5851.7,1391.13 c -35.82,0 -63.99,-10.33 -84.54,-31.02 -20.55,-20.68 -33.31,-49.35 -38.31,-85.99 h 229.45 c 0,17.2 -2.36,32.96 -7.08,47.26 -4.72,14.3 -11.66,26.64 -20.82,37.07 -9.16,10.41 -20.34,18.46 -33.52,24.14 -13.19,5.69 -28.25,8.54 -45.18,8.54 z m -1.67,54.55 c 25.27,0 48.59,-4.24 69.96,-12.7 21.38,-8.47 39.84,-20.68 55.38,-36.64 15.55,-15.97 27.7,-35.68 36.44,-59.14 8.75,-23.45 13.12,-50.17 13.12,-80.15 0,-11.66 -1.25,-19.44 -3.75,-23.32 -2.5,-3.89 -7.22,-5.84 -14.16,-5.84 h -280.67 c 0.56,-26.64 4.17,-49.83 10.83,-69.54 6.66,-19.72 15.83,-36.17 27.49,-49.35 11.65,-13.18 25.54,-23.05 41.64,-29.57 16.1,-6.52 34.14,-9.79 54.13,-9.79 18.6,0 34.63,2.15 48.1,6.47 13.47,4.3 25.05,8.94 34.77,13.94 9.72,5 17.84,9.65 24.36,13.95 6.52,4.32 12.15,6.46 16.86,6.46 6.11,0 10.83,-2.36 14.16,-7.09 l 20.82,-27.05 c -9.16,-11.11 -20.12,-20.76 -32.89,-28.94 -12.77,-8.21 -26.44,-14.92 -41.02,-20.2 -14.57,-5.27 -29.63,-9.24 -45.18,-11.87 -15.55,-2.64 -30.95,-3.95 -46.22,-3.95 -29.15,0 -56.01,4.92 -80.58,14.77 -24.57,9.86 -45.8,24.29 -63.71,43.32 -17.9,19 -31.86,42.54 -41.85,70.58 -10,28.03 -15,60.24 -15,96.61 0,29.43 4.51,56.91 13.53,82.46 9.03,25.52 22.01,47.67 38.94,66.4 16.93,18.75 37.62,33.46 62.05,44.14 24.43,10.69 51.92,16.04 82.45,16.04"
         style="fill:#ffffff;fill-opacity:1;fill-rule:nonzero;stroke:none"
         id="path72" /><path
         d="m 6216.06,1062.57 c 13.04,0 24.98,1.31 35.81,3.97 10.83,2.62 21.02,6.37 30.6,11.23 9.58,4.86 18.74,10.76 27.48,17.69 8.75,6.94 17.29,14.87 25.62,23.75 v 87.04 c -34.15,0 -63.16,-2.17 -87.03,-6.51 -23.88,-4.33 -43.31,-9.98 -58.3,-16.95 -14.99,-6.99 -25.89,-15.22 -32.69,-24.73 -6.8,-9.49 -10.2,-20.1 -10.2,-31.81 0,-11.18 1.79,-20.83 5.41,-28.91 3.6,-8.11 8.46,-14.73 14.58,-19.9 6.1,-5.16 13.32,-8.95 21.65,-11.31 8.33,-2.37 17.34,-3.56 27.07,-3.56 z m 192.38,-45.39 h -32.89 c -7.23,0 -13.06,1.12 -17.49,3.34 -4.44,2.21 -7.36,6.94 -8.75,14.14 l -8.33,39.16 c -11.1,-10 -21.93,-18.94 -32.48,-26.87 -10.55,-7.91 -21.65,-14.57 -33.31,-19.98 -11.66,-5.41 -24.09,-9.51 -37.28,-12.29 -13.18,-2.77 -27.83,-4.16 -43.92,-4.16 -16.39,0 -31.72,2.31 -46.02,6.9 -14.3,4.59 -26.73,11.48 -37.27,20.68 -10.55,9.18 -18.95,20.82 -25.2,34.88 -6.24,14.09 -9.36,30.73 -9.36,49.94 0,16.7 4.58,32.8 13.74,48.27 9.16,15.45 23.94,29.18 44.35,41.15 20.4,11.99 47.12,21.8 80.16,29.47 33.03,7.66 73.43,11.49 121.18,11.49 v 33.1 c 0,32.97 -7.01,57.89 -21.03,74.79 -14.02,16.91 -34.77,25.37 -62.25,25.37 -18.06,0 -33.25,-2.31 -45.61,-6.88 -12.35,-4.59 -23.04,-9.72 -32.06,-15.41 -9.02,-5.68 -16.79,-10.82 -23.32,-15.41 -6.52,-4.57 -12.98,-6.87 -19.36,-6.87 -5,0 -9.37,1.33 -13.12,3.96 -3.75,2.64 -6.74,5.9 -8.95,9.79 l -13.32,23.73 c 23.31,22.5 48.43,39.28 75.37,50.39 26.92,11.09 56.76,16.66 89.53,16.66 23.59,0 44.55,-3.89 62.88,-11.66 18.32,-7.78 33.73,-18.61 46.22,-32.48 12.49,-13.89 21.92,-30.69 28.32,-50.39 6.38,-19.71 9.57,-41.37 9.57,-64.96 v -269.85"
         style="fill:#ffffff;fill-opacity:1;fill-rule:nonzero;stroke:none"
         id="path74" /><path
         d="m 6500.05,1017.18 v 421.84 h 42.47 c 8.05,0 13.61,-1.52 16.66,-4.57 3.05,-3.07 5.14,-8.34 6.24,-15.84 l 5,-65.78 c 14.44,29.41 32.28,52.38 53.52,68.9 21.23,16.53 46.15,24.79 74.74,24.79 11.66,0 22.21,-1.33 31.66,-3.97 9.43,-2.63 18.17,-6.3 26.23,-11.03 l -9.58,-55.37 c -1.95,-6.96 -6.24,-10.41 -12.91,-10.41 -3.89,0 -9.86,1.31 -17.91,3.94 -8.05,2.64 -19.29,3.97 -33.73,3.97 -25.82,0 -47.41,-7.5 -64.75,-22.5 -17.35,-14.98 -31.86,-36.78 -43.52,-65.37 v -268.6 h -74.12"
         style="fill:#ffffff;fill-opacity:1;fill-rule:nonzero;stroke:none"
         id="path76" /><path
         d="m 7102.61,1364.06 c -2.23,-3.05 -4.44,-5.41 -6.66,-7.07 -2.23,-1.66 -5.41,-2.5 -9.58,-2.5 -4.16,0 -8.68,1.74 -13.53,5.19 -4.86,3.48 -11.04,7.31 -18.53,11.47 -7.5,4.16 -16.59,7.97 -27.28,11.44 -10.69,3.48 -23.8,5.22 -39.35,5.22 -20.55,0 -38.73,-3.69 -54.55,-11.04 -15.82,-7.36 -29.08,-17.99 -39.77,-31.85 -10.69,-13.89 -18.74,-30.69 -24.16,-50.39 -5.41,-19.73 -8.11,-41.8 -8.11,-66.21 0,-25.55 2.91,-48.25 8.74,-68.09 5.83,-19.86 14.02,-36.52 24.57,-49.98 10.54,-13.46 23.39,-23.73 38.52,-30.82 15.13,-7.07 32.13,-10.61 51.01,-10.61 18.05,0 32.9,2.15 44.56,6.45 11.66,4.3 21.38,9.1 29.15,14.37 7.76,5.28 14.16,10.06 19.15,14.36 5,4.32 10,6.46 15,6.46 6.38,0 11.09,-2.36 14.15,-7.09 l 20.82,-27.05 c -18.32,-22.5 -41.22,-38.94 -68.7,-49.35 -27.49,-10.41 -56.5,-15.61 -87.04,-15.61 -26.38,0 -50.87,4.85 -73.5,14.57 -22.62,9.71 -42.26,23.79 -58.92,42.27 -16.65,18.46 -29.78,41.15 -39.35,68.08 -9.58,26.92 -14.37,57.6 -14.37,92.04 0,31.36 4.37,60.37 13.12,87.03 8.74,26.64 21.51,49.61 38.31,68.9 16.79,19.3 37.54,34.36 62.26,45.2 24.7,10.82 53.02,16.23 84.95,16.23 29.42,0 55.52,-4.79 78.28,-14.36 22.76,-9.59 42.89,-23.12 60.38,-40.6 l -19.57,-26.66"
         style="fill:#ffffff;fill-opacity:1;fill-rule:nonzero;stroke:none"
         id="path78" /><path
         d="m 7182.98,1017.18 v 613.4 h 74.11 v -248.2 c 18.05,19.16 38.05,34.49 59.96,46.01 21.96,11.53 47.19,17.29 75.82,17.29 23.01,0 43.36,-3.81 60.98,-11.45 17.66,-7.63 32.34,-18.47 44.14,-32.48 11.8,-14.02 20.78,-30.9 26.88,-50.6 6.09,-19.71 9.14,-41.51 9.14,-65.37 v -268.6 h -74.1 v 268.6 c 0,31.91 -7.31,56.7 -21.88,74.33 -14.57,17.62 -36.84,26.45 -66.84,26.45 -21.91,0 -42.38,-5.28 -61.4,-15.84 -19.03,-10.55 -36.6,-24.85 -52.7,-42.89 v -310.65 h -74.11"
         style="fill:#ffffff;fill-opacity:1;fill-rule:nonzero;stroke:none"
         id="path80" /><path
         d="m 3818.33,478.73 h 222.79 l -93.7,242.77 c -6.11,14.98 -12.08,33.73 -17.91,56.211 -3.05,-11.391 -6.03,-21.859 -8.95,-31.449 -2.91,-9.571 -5.76,-17.961 -8.54,-25.172 z m 391.02,-221.55 h -62.46 c -7.22,0 -13.05,1.8 -17.49,5.41 -4.45,3.621 -7.78,8.191 -9.99,13.75 l -55.8,144.082 h -267.77 l -55.8,-144.082 c -1.94,-5 -5.27,-9.449 -9.99,-13.34 -4.72,-3.879 -10.55,-5.82 -17.49,-5.82 h -62.47 l 238.61,596.742 h 82.05 l 238.6,-596.742"
         style="fill:#ffffff;fill-opacity:1;fill-rule:nonzero;stroke:none"
         id="path82" /><path
         d="m 4394.24,463.32 c 14.99,0 28.24,2.071 39.77,6.25 11.51,4.16 21.16,9.981 28.94,17.481 7.77,7.5 13.6,16.437 17.48,26.847 3.89,10.411 5.83,21.883 5.83,34.364 0,25.816 -7.84,46.359 -23.52,61.636 -15.69,15.25 -38.52,22.891 -68.5,22.891 -29.72,0 -52.41,-7.641 -68.08,-22.891 -15.7,-15.277 -23.54,-35.82 -23.54,-61.636 0,-12.481 2.01,-23.953 6.05,-34.364 4.01,-10.41 9.92,-19.347 17.69,-26.847 7.77,-7.5 17.34,-13.321 28.73,-17.481 11.39,-4.179 24.42,-6.25 39.15,-6.25 z m 131.58,-227.539 c 0,10.758 -2.91,19.391 -8.74,25.891 -5.83,6.527 -13.74,11.547 -23.74,15.078 -9.99,3.559 -21.51,6.172 -34.56,7.871 -13.04,1.68 -26.79,2.539 -41.22,2.539 -14.44,0 -29.15,0 -44.14,0 -15,0 -29.3,1.879 -42.9,5.629 -15.82,-7.519 -28.66,-16.699 -38.51,-27.539 -9.86,-10.82 -14.79,-23.77 -14.79,-38.77 0,-9.449 2.43,-18.281 7.29,-26.48 4.86,-8.211 12.28,-15.301 22.28,-21.27 9.99,-5.98 22.55,-10.71 37.69,-14.199 15.12,-3.461 32.95,-5.199 53.5,-5.199 19.99,0 37.9,1.84 53.72,5.508 15.83,3.691 29.22,8.922 40.19,15.719 10.96,6.8 19.36,14.863 25.19,24.203 5.83,9.359 8.74,19.687 8.74,31.019 z m -131.58,450.328 c 18.32,0 35.46,-2.031 51.43,-6.058 15.95,-4.02 30.46,-9.922 43.51,-17.692 h 114.51 v -27.48 c 0,-9.16 -5.83,-14.981 -17.48,-17.481 l -47.89,-6.679 c 9.44,-18.047 14.16,-38.168 14.16,-60.367 0,-20.551 -3.96,-39.223 -11.87,-56.02 -7.91,-16.801 -18.88,-31.152 -32.89,-43.082 -14.03,-11.961 -30.69,-21.121 -49.98,-27.5 -19.3,-6.391 -40.46,-9.578 -63.5,-9.578 -19.72,0 -38.31,2.367 -55.8,7.078 -8.9,-5.73 -15.61,-11.918 -20.2,-18.5 -4.58,-6.602 -6.87,-13.07 -6.87,-19.379 0,-10.332 4.02,-18.16 12.07,-23.473 8.06,-5.316 18.74,-9.097 32.07,-11.41 13.32,-2.297 28.46,-3.437 45.39,-3.437 16.94,0 34.21,0 51.85,0 17.62,0 34.9,-1.563 51.84,-4.641 16.93,-3.09 32.06,-8.148 45.39,-15.18 13.32,-7.011 24.01,-16.718 32.06,-29.082 8.05,-12.367 12.08,-28.378 12.08,-48.046 0,-18.282 -4.52,-35.981 -13.53,-53.122 -9.02,-17.128 -22.01,-32.39 -38.94,-45.75 -16.93,-13.339 -37.62,-24.019 -62.05,-32.031 -24.43,-8.008 -52.05,-12.008 -82.87,-12.008 -30.81,0 -57.81,3.047 -80.98,9.161 -23.19,6.128 -42.42,14.32 -57.68,24.609 -15.27,10.269 -26.73,22.168 -34.36,35.621 -7.63,13.5 -11.45,27.598 -11.45,42.328 0,20.84 6.59,38.551 19.78,53.141 13.18,14.59 31.29,26.199 54.34,34.808 -11.93,5.551 -21.45,12.969 -28.53,22.243 -7.08,9.277 -10.61,21.699 -10.61,37.207 0,6.101 1.1,12.402 3.33,18.929 2.22,6.5 5.62,12.953 10.2,19.332 4.58,6.371 10.21,12.461 16.87,18.282 6.66,5.82 14.43,10.957 23.32,15.398 -20.82,11.66 -37.14,27.121 -48.94,46.422 -11.79,19.297 -17.69,41.859 -17.69,67.68 0,20.539 3.95,39.199 11.86,56.007 7.92,16.782 18.96,31.082 33.11,42.891 14.16,11.801 31.03,20.879 50.6,27.27 19.58,6.39 41.02,9.589 64.34,9.589"
         style="fill:#ffffff;fill-opacity:1;fill-rule:nonzero;stroke:none"
         id="path84" /><path
         d="m 4825.65,631.129 c -35.82,0 -64,-10.328 -84.54,-31.02 -20.55,-20.679 -33.31,-49.347 -38.31,-85.988 h 229.45 c 0,17.199 -2.36,32.961 -7.08,47.258 -4.73,14.301 -11.66,26.641 -20.82,37.07 -9.16,10.41 -20.34,18.461 -33.53,24.141 -13.18,5.691 -28.25,8.539 -45.17,8.539 z m -1.67,54.551 c 25.26,0 48.58,-4.239 69.96,-12.7 21.38,-8.468 39.83,-20.679 55.38,-36.64 15.55,-15.969 27.69,-35.68 36.44,-59.141 8.75,-23.449 13.12,-50.168 13.12,-80.148 0,-11.66 -1.25,-19.442 -3.75,-23.321 -2.5,-3.89 -7.23,-5.839 -14.16,-5.839 H 4700.3 c 0.55,-26.641 4.17,-49.832 10.83,-69.539 6.66,-19.723 15.83,-36.172 27.49,-49.352 11.65,-13.18 25.53,-23.051 41.64,-29.57 16.09,-6.52 34.14,-9.789 54.13,-9.789 18.59,0 34.63,2.148 48.09,6.468 13.47,4.301 25.05,8.942 34.78,13.942 9.72,5 17.83,9.648 24.35,13.949 6.53,4.32 12.15,6.461 16.87,6.461 6.1,0 10.83,-2.359 14.16,-7.09 l 20.82,-27.051 c -9.16,-11.109 -20.13,-20.761 -32.89,-28.941 -12.77,-8.207 -26.45,-14.918 -41.03,-20.199 -14.57,-5.27 -29.62,-9.239 -45.17,-11.871 -15.56,-2.637 -30.96,-3.95 -46.22,-3.95 -29.15,0 -56.02,4.922 -80.59,14.77 -24.57,9.859 -45.8,24.293 -63.71,43.32 -17.9,19 -31.85,42.539 -41.84,70.582 -10,28.028 -15,60.239 -15,96.61 0,29.429 4.51,56.91 13.53,82.461 9.02,25.519 22,47.668 38.94,66.398 16.93,18.75 37.61,33.461 62.05,44.141 24.42,10.687 51.91,16.039 82.45,16.039"
         style="fill:#ffffff;fill-opacity:1;fill-rule:nonzero;stroke:none"
         id="path86" /><path
         d="m 5072.57,257.18 v 421.84 h 44.14 c 10.55,0 17.21,-5.141 19.99,-15.411 l 5.83,-45.8 c 18.32,20.25 38.79,36.64 61.42,49.14 22.63,12.481 48.79,18.731 78.49,18.731 23.05,0 43.38,-3.809 61.01,-11.45 17.63,-7.628 32.34,-18.468 44.14,-32.48 11.8,-14.02 20.75,-30.898 26.87,-50.602 6.1,-19.707 9.16,-41.507 9.16,-65.367 V 257.18 h -74.12 v 268.601 c 0,31.91 -7.3,56.699 -21.87,74.328 -14.58,17.621 -36.86,26.45 -66.84,26.45 -21.93,0 -42.41,-5.278 -61.42,-15.84 -19.02,-10.547 -36.58,-24.848 -52.68,-42.891 V 257.18 h -74.12"
         style="fill:#ffffff;fill-opacity:1;fill-rule:nonzero;stroke:none"
         id="path88" /><path
         d="m 5802.56,604.059 c -2.22,-3.047 -4.44,-5.411 -6.66,-7.071 -2.23,-1.66 -5.41,-2.5 -9.58,-2.5 -4.16,0 -8.68,1.742 -13.53,5.192 -4.86,3.48 -11.04,7.308 -18.53,11.468 -7.5,4.161 -16.59,7.973 -27.27,11.442 -10.7,3.48 -23.81,5.219 -39.36,5.219 -20.55,0 -38.73,-3.688 -54.55,-11.039 -15.82,-7.36 -29.08,-17.989 -39.77,-31.848 -10.69,-13.891 -18.74,-30.692 -24.16,-50.391 -5.41,-19.73 -8.11,-41.801 -8.11,-66.211 0,-25.55 2.91,-48.25 8.74,-68.09 5.83,-19.859 14.02,-36.519 24.57,-49.98 10.55,-13.461 23.39,-23.73 38.52,-30.82 15.13,-7.071 32.13,-10.61 51.01,-10.61 18.05,0 32.9,2.149 44.56,6.45 11.66,4.3 21.38,9.101 29.15,14.371 7.76,5.281 14.16,10.058 19.15,14.359 5,4.32 10,6.461 15,6.461 6.38,0 11.1,-2.359 14.15,-7.09 l 20.82,-27.051 c -18.32,-22.5 -41.22,-38.941 -68.7,-49.351 -27.49,-10.41 -56.5,-15.61 -87.04,-15.61 -26.38,0 -50.87,4.852 -73.5,14.571 -22.62,9.711 -42.26,23.789 -58.92,42.269 -16.65,18.461 -29.78,41.153 -39.35,68.082 -9.58,26.918 -14.37,57.598 -14.37,92.039 0,31.36 4.37,60.371 13.12,87.032 8.74,26.636 21.51,49.609 38.31,68.898 16.79,19.301 37.54,34.359 62.26,45.199 24.71,10.821 53.02,16.231 84.95,16.231 29.42,0 55.52,-4.789 78.28,-14.36 22.76,-9.59 42.89,-23.121 60.38,-40.601 l -19.57,-26.66"
         style="fill:#ffffff;fill-opacity:1;fill-rule:nonzero;stroke:none"
         id="path90" /><path
         d="m 6006.6,132.672 c -2.49,-5.551 -5.61,-10 -9.36,-13.32 -3.75,-3.34 -9.51,-5 -17.29,-5 h -54.96 l 77.03,167.398 -174.06,397.27 h 64.13 c 6.38,0 11.38,-1.598 14.99,-4.79 3.61,-3.199 6.25,-6.73 7.91,-10.621 l 112.85,-265.687 c 2.5,-6.09 4.65,-12.203 6.46,-18.32 1.81,-6.09 3.4,-12.34 4.79,-18.731 1.94,6.391 3.88,12.641 5.83,18.731 1.94,6.117 4.17,12.367 6.67,18.75 l 109.51,265.257 c 1.67,4.43 4.51,8.121 8.54,11.032 4.02,2.91 8.39,4.379 13.12,4.379 h 59.13 L 6006.6,132.672"
         style="fill:#ffffff;fill-opacity:1;fill-rule:nonzero;stroke:none"
         id="path92" /><path
         d="m 5198.64,2326.95 c 0,-23.85 -19.34,-43.2 -43.2,-43.2 -23.85,0 -43.19,19.35 -43.19,43.2 0,23.85 19.34,43.19 43.19,43.19 23.86,0 43.2,-19.34 43.2,-43.19"
         style="fill:#ffffff;fill-opacity:1;fill-rule:nonzero;stroke:none"
         id="path94" /><path
         d="m 6020.64,2326.11 c 0,-23.85 -19.34,-43.19 -43.2,-43.19 -23.85,0 -43.19,19.34 -43.19,43.19 0,23.86 19.34,43.2 43.19,43.2 23.86,0 43.2,-19.34 43.2,-43.2"
         style="fill:#ffffff;fill-opacity:1;fill-rule:nonzero;stroke:none"
         id="path96" /><path
         d="m 2186.84,1435.17 -70.69,40.82 -521.7,301.2 -37.07,21.41 -33.63,-19.41 L 389.488,1124.32 325.102,1087.14 0,899.449 C 165.363,613.031 371.805,406.59 658.227,241.23 941.441,77.7109 1250.58,0 1555.69,0 c 425.53,0 843.07,151.289 1171.01,431.852 18.81,16.078 37.29,32.648 55.49,49.589 127.94,119.039 240.63,258.778 332.56,418.008 l -927.91,535.721"
         style="fill:#ffffff;fill-opacity:1;fill-rule:nonzero;stroke:none"
         id="path98" /><path
         d="m 1522.02,1859.82 1.73,1 v 1175.36 h 70.7 c 190.26,0 376.23,-28.15 555.04,-83.78 v 341.14 c -330.73,0 -612.74,-75.57 -899.15,-240.93 C 582.02,2666.76 255.18,1916.72 375.551,1197.91 l 1146.469,661.91"
         style="fill:#ffffff;fill-opacity:1;fill-rule:nonzero;stroke:none"
         id="path100" /><path
         d="m 2220.18,2853.55 c -23.34,8.66 -46.92,16.79 -70.69,24.5 -174.83,56.68 -361.33,87.43 -555.04,87.43 V 1858.83 l 555.04,-320.46 70.69,-40.81 929.92,-536.888 61.22,-35.34 -35.35,-61.23 C 3086.09,708.43 2974.57,567.41 2845.81,444.711 l 306.01,-176.68 c 165.37,286.418 240.93,568.43 240.93,899.149 0,773.12 -487.9,1432.21 -1172.57,1686.37"
         style="fill:#ffffff;fill-opacity:1;fill-rule:nonzero;stroke:none"
         id="path102" /></g></g></svg>