<?xml version="1.0" encoding="UTF-8" standalone="no"?>
<svg
   class="header__svg-logo"
   focusable="false"
   width="360"
   height="142"
   viewBox="0 0 360 142"
   role="img"
   aria-labelledby="census-logo-en-alt"
   version="1.1"
   id="svg29"
   xmlns:sodipodi="http://sodipodi.sourceforge.net/DTD/sodipodi-0.dtd"
   xmlns="http://www.w3.org/2000/svg"
   xmlns:svg="http://www.w3.org/2000/svg"
   xmlns:rdf="http://www.w3.org/1999/02/22-rdf-syntax-ns#"
   xmlns:cc="http://creativecommons.org/ns#"
   xmlns:dc="http://purl.org/dc/elements/1.1/">
  <defs
     id="defs33">
    <pattern
       id="EMFhbasepattern"
       patternUnits="userSpaceOnUse"
       width="6"
       height="6"
       x="0"
       y="0" />
  </defs>
  <title
     id="census-logo-en-alt">Census 2021</title>
  <g
     id="g3077"
     transform="matrix(2.4860289,0,0,2.4860289,0.02301857,-23.967694)">
    <path
       d="m 35.85,10 a 12,12 0 0 0 0,24 2.73,2.73 0 0 0 0,-5.45 6.57,6.57 0 0 1 -6,-3.82 H 45.12 A 2.73,2.73 0 0 0 47.85,22 12,12 0 0 0 35.85,10 Z m -6,9.27 a 6.55,6.55 0 0 1 11.91,0 z"
       fill="#FFFFFF"
       id="path3"
       style="fill:#902082;fill-opacity:1" />
    <path
       d="m 62.42,10 a 12,12 0 0 0 -12,12 v 9.12 a 2.73,2.73 0 0 0 5.45,0 V 22 A 6.565,6.565 0 1 1 69,22 v 9.12 a 2.73,2.73 0 0 0 5.45,0 V 22 A 12,12 0 0 0 62.42,10 Z"
       fill="#FFFFFF"
       id="path5"
       style="fill:#902082;fill-opacity:1" />
    <path
       d="m 120.41,10 a 2.72,2.72 0 0 0 -2.72,2.73 v 9.11 a 6.55,6.55 0 1 1 -13.1,0 v -9.11 a 2.73,2.73 0 1 0 -5.45,0 v 9.11 a 12,12 0 0 0 24,0 V 12.73 A 2.73,2.73 0 0 0 120.41,10 Z"
       fill="#FFFFFF"
       id="path7"
       style="fill:#902082;fill-opacity:1" />
    <path
       d="m 88.64,19.78 c -3.85,-0.82 -5.4,-1.15 -5.4,-2.55 0,-1.4 2,-2.17 4.15,-2.17 a 8.87,8.87 0 0 1 3.15,0.63 3.2,3.2 0 0 0 1.12,0.24 2.55,2.55 0 0 0 2.55,-2.55 2.58,2.58 0 0 0 -1.79,-2.47 14.64,14.64 0 0 0 -5,-0.9 c -6.27,0 -9.83,3.56 -9.83,7.13 0,4.33 4,6.26 8.48,7.22 3.47,0.72 4.53,1 4.53,2.5 0,1.5 -2,2.08 -4.34,2.08 a 11,11 0 0 1 -5.13,-1.58 2.91,2.91 0 0 0 -1,-0.22 A 2.57,2.57 0 0 0 79,32 a 14.84,14.84 0 0 0 7.47,2 c 5.83,0 10,-3.13 10,-7 -0.08,-4.76 -3.3,-6.25 -7.83,-7.22 z"
       fill="#FFFFFF"
       id="path9"
       style="fill:#902082;fill-opacity:1" />
    <path
       d="M 81.1,27.36 Z"
       fill="#FFFFFF"
       id="path11"
       style="fill:#902082;fill-opacity:1" />
    <path
       d="M 129.43,27.34 Z"
       fill="#FFFFFF"
       id="path13"
       style="fill:#902082;fill-opacity:1" />
    <path
       d="M 129.42,27.33 Z"
       fill="#FFFFFF"
       id="path15"
       style="fill:#902082;fill-opacity:1" />
    <path
       d="m 137,19.78 c -3.86,-0.82 -5.4,-1.15 -5.4,-2.55 0,-1.4 2,-2.17 4.14,-2.17 a 8.78,8.78 0 0 1 3.15,0.63 3.18,3.18 0 0 0 1.13,0.24 2.55,2.55 0 0 0 2.54,-2.55 2.61,2.61 0 0 0 -1.79,-2.47 14.59,14.59 0 0 0 -5,-0.9 c -6.26,0 -9.82,3.56 -9.82,7.13 0,4.33 3.95,6.26 8.47,7.22 3.47,0.72 4.53,1 4.53,2.5 0,1.5 -2,2.08 -4.33,2.08 a 11.16,11.16 0 0 1 -5.18,-1.6 2.44,2.44 0 0 0 -1,-0.2 2.57,2.57 0 0 0 -2.58,2.57 2.64,2.64 0 0 0 1.47,2.29 14.81,14.81 0 0 0 7.47,2 c 5.83,0 10,-3.13 10,-7 -0.03,-4.76 -3.26,-6.25 -7.8,-7.22 z"
       fill="#FFFFFF"
       id="path17"
       style="fill:#902082;fill-opacity:1" />
    <path
       d="m 12,15.45 a 6.45,6.45 0 0 1 4.78,2.09 2.7278242,2.7278242 0 1 0 4,-3.71 12,12 0 1 0 0,16.34 2.7312268,2.7312268 0 0 0 -4,-3.72 6.46,6.46 0 0 1 -4.78,2.1 6.55,6.55 0 0 1 0,-13.1 z"
       fill="#FFFFFF"
       id="path19"
       style="fill:#902082;fill-opacity:1" />
    <path
       style="opacity:0.7;fill:#902082;fill-opacity:1"
       d="m 17.07032,62.98627 h -11.61 a 4.74,4.74 0 0 1 0.14,-1 c 0.6,-2.45 3.08,-3.72 6.09,-5.06 3.46,-1.6 6.72,-3.22 6.72,-7.33 0,-4.11 -3,-6.83 -8,-6.83 a 9.6,9.6 0 0 0 -6.15,2 5.15,5.15 0 0 0 -2.09,3.75 c 0,1.92 2.4,1.88 2.4,1.77 a 5.43,5.43 0 0 1 5.6,-4.38 c 2.93,0 4.67,1.41 4.67,3.78 0,2.37 -2.69,3.61 -5.7,5.1 -3.43,1.7 -7.08,3.78 -7.08,8.49 v 0.88 c 0,1.46 0.67,2 2.27,2 h 12.74 c 1.2,0 1.73,-0.53 1.73,-1.49 v -0.21 c 0,-0.97 -0.53,-1.47 -1.73,-1.47 z"
       fill="#FFFFFF"
       id="path21" />
    <path
       style="opacity:0.7;fill:#902082;fill-opacity:1"
       d="m 58.47032,62.98627 h -11.61 a 4.74,4.74 0 0 1 0.14,-1 c 0.6,-2.45 3.08,-3.72 6.09,-5.06 3.47,-1.6 6.72,-3.22 6.72,-7.33 0,-4.11 -3,-6.83 -8,-6.83 a 9.6,9.6 0 0 0 -6.15,2 5.15,5.15 0 0 0 -2.1,3.71 c 0,1.92 2.4,1.88 2.4,1.77 a 5.43,5.43 0 0 1 5.6,-4.38 c 2.93,0 4.67,1.41 4.67,3.78 0,2.37 -2.69,3.61 -5.7,5.1 -3.43,1.7 -7.08,3.78 -7.08,8.49 v 0.88 c 0,1.46 0.67,2 2.27,2 h 12.74 c 1.2,0 1.73,-0.53 1.73,-1.49 v -0.21 c 0.01,-0.93 -0.52,-1.43 -1.72,-1.43 z"
       fill="#FFFFFF"
       id="path23" />
    <path
       style="opacity:0.7;fill:#902082;fill-opacity:1"
       d="m 76.73032,63.02627 h -3.08 v -18.33 a 1.49,1.49 0 0 0 -1.63,-1.67 h -1.23 l -6.83,4.5 a 2,2 0 0 0 1.87,2.23 2.9,2.9 0 0 0 1.88,-0.78 c 0.67,-0.53 1.24,-1.17 2.62,-2.27 v 16.32 h -3.77 c -1.09,0 -1.66,0.46 -1.66,1.48 v 0.18 c 0,1 0.57,1.42 1.66,1.42 h 10.2 c 1.09,0 1.66,-0.43 1.66,-1.42 v -0.18 c -0.03,-1.02 -0.6,-1.48 -1.69,-1.48 z"
       fill="#FFFFFF"
       id="path25" />
    <path
       style="opacity:0.7;fill:#902082;fill-opacity:1"
       d="m 30.87032,42.74627 c -5.88,0 -9.52,4.14 -9.52,10.76 v 2.33 c 0,6.62 3.57,10.73 9.52,10.73 5.95,0 9.55,-4.18 9.55,-10.8 v -2.3 c 0,-6.61 -3.61,-10.72 -9.55,-10.72 z m 5.91,13.2 c 0,4.81 -2.13,7.54 -5.91,7.54 -3.78,0 -5.84,-2.76 -5.84,-7.57 v -2.59 c 0,-4.81 2.12,-7.57 5.84,-7.57 3.72,0 5.91,2.83 5.91,7.64 z"
       fill="#FFFFFF"
       id="path27" />
  </g>
  <metadata
     id="metadata850">
    <rdf:RDF>
      <cc:Work
         rdf:about="">
        <dc:title>Census 2021</dc:title>
      </cc:Work>
    </rdf:RDF>
  </metadata>
</svg>
